<svg width="510.0" height="839.4228634059947" xmlns="http://www.w3.org/2000/svg">
<defs>
<style>
.hex-normal { fill: #90EE90; stroke: #00AA00; stroke-width: 1; }
.hex-difficult { fill: #FFA500; stroke: #00AA00; stroke-width: 1; }
.hex-obstacle { fill: #8B0000; stroke: #FF0000; stroke-width: 1.5; }
.label { font-size: 10px; font-family: Arial; fill: #333; text-anchor: middle; }
.coord { font-size: 8px; font-family: Arial; fill: #666; text-anchor: middle; }
</style>
</defs>
<rect width="510.0" height="839.4228634059947" fill="white"/>
<g id="map">
<polygon points="192.5,73.30127018922192 167.5,116.60254037844385 117.50000000000001,116.60254037844386 92.5,73.30127018922192 117.49999999999997,30.000000000000007 167.49999999999997,29.99999999999997" class="hex-normal"/>
<text x="142.5" y="76.30127018922192" class="coord">0,0</text>
<polygon points="267.5,116.60254037844385 242.5,159.90381056766577 192.5,159.9038105676658 167.5,116.60254037844385 192.49999999999997,73.30127018922192 242.49999999999997,73.3012701892219" class="hex-normal"/>
<text x="217.5" y="119.60254037844385" class="coord">1,0</text>
<polygon points="342.5,159.9038105676658 317.5,203.20508075688772 267.5,203.20508075688775 242.5,159.9038105676658 267.5,116.60254037844388 317.49999999999994,116.60254037844385" class="hex-normal"/>
<text x="292.5" y="162.9038105676658" class="coord">2,0</text>
<polygon points="117.5,29.999999999999993 92.5,73.30127018922192 42.500000000000014,73.30127018922192 17.5,30.0 42.49999999999998,-13.301270189221924 92.49999999999997,-13.30127018922196" class="hex-difficult"/>
<text x="67.5" y="32.99999999999999" class="coord">-1,0</text>
<polygon points="417.5,203.20508075688772 392.5,246.50635094610965 342.5,246.50635094610965 317.5,203.20508075688772 342.5,159.9038105676658 392.49999999999994,159.90381056766577" class="hex-normal"/>
<text x="367.5" y="206.20508075688772" class="coord">3,0</text>
<polygon points="192.5,159.9038105676658 167.5,203.20508075688772 117.50000000000001,203.20508075688775 92.5,159.9038105676658 117.49999999999997,116.60254037844388 167.49999999999997,116.60254037844385" class="hex-normal"/>
<text x="142.5" y="162.9038105676658" class="coord">0,1</text>
<polygon points="267.5,203.20508075688772 242.5,246.50635094610965 192.5,246.50635094610965 167.5,203.20508075688772 192.49999999999997,159.9038105676658 242.49999999999997,159.90381056766577" class="hex-normal"/>
<text x="217.5" y="206.20508075688772" class="coord">1,1</text>
<polygon points="342.5,246.50635094610965 317.5,289.8076211353316 267.5,289.8076211353316 242.5,246.50635094610965 267.5,203.20508075688772 317.49999999999994,203.2050807568877" class="hex-normal"/>
<text x="292.5" y="249.50635094610965" class="coord">2,1</text>
<polygon points="117.5,116.60254037844385 92.5,159.90381056766577 42.500000000000014,159.9038105676658 17.5,116.60254037844385 42.49999999999998,73.30127018922192 92.49999999999997,73.3012701892219" class="hex-normal"/>
<text x="67.5" y="119.60254037844385" class="coord">-1,1</text>
<polygon points="417.5,289.8076211353316 392.5,333.10889132455355 342.5,333.10889132455355 317.5,289.8076211353316 342.5,246.50635094610968 392.49999999999994,246.50635094610965" class="hex-difficult"/>
<text x="367.5" y="292.8076211353316" class="coord">3,1</text>
<polygon points="192.5,246.50635094610965 167.5,289.8076211353316 117.50000000000001,289.8076211353316 92.5,246.50635094610965 117.49999999999997,203.20508075688772 167.49999999999997,203.2050807568877" class="hex-normal"/>
<text x="142.5" y="249.50635094610965" class="coord">0,2</text>
<polygon points="267.5,289.8076211353316 242.5,333.10889132455355 192.5,333.10889132455355 167.5,289.8076211353316 192.49999999999997,246.50635094610968 242.49999999999997,246.50635094610965" class="hex-difficult"/>
<text x="217.5" y="292.8076211353316" class="coord">1,2</text>
<polygon points="342.5,333.1088913245535 317.5,376.41016151377545 267.5,376.41016151377545 242.5,333.1088913245535 267.5,289.8076211353316 317.49999999999994,289.80762113533154" class="hex-normal"/>
<text x="292.5" y="336.1088913245535" class="coord">2,2</text>
<polygon points="117.5,203.20508075688772 92.5,246.50635094610965 42.500000000000014,246.50635094610965 17.5,203.20508075688772 42.49999999999998,159.9038105676658 92.49999999999997,159.90381056766577" class="hex-normal"/>
<text x="67.5" y="206.20508075688772" class="coord">-1,2</text>
<polygon points="417.5,376.4101615137754 392.5,419.71143170299734 342.5,419.71143170299734 317.5,376.4101615137754 342.5,333.1088913245535 392.49999999999994,333.10889132455344" class="hex-normal"/>
<text x="367.5" y="379.4101615137754" class="coord">3,2</text>
<polygon points="192.5,333.1088913245535 167.5,376.41016151377545 117.50000000000001,376.41016151377545 92.5,333.1088913245535 117.49999999999997,289.8076211353316 167.49999999999997,289.80762113533154" class="hex-normal"/>
<text x="142.5" y="336.1088913245535" class="coord">0,3</text>
<polygon points="267.5,376.4101615137754 242.5,419.71143170299734 192.5,419.71143170299734 167.5,376.4101615137754 192.49999999999997,333.1088913245535 242.49999999999997,333.10889132455344" class="hex-normal"/>
<text x="217.5" y="379.4101615137754" class="coord">1,3</text>
<polygon points="342.5,419.7114317029974 317.5,463.01270189221935 267.5,463.01270189221935 242.5,419.7114317029974 267.5,376.4101615137755 317.49999999999994,376.41016151377545" class="hex-normal"/>
<text x="292.5" y="422.7114317029974" class="coord">2,3</text>
<polygon points="192.5,419.7114317029974 167.5,463.01270189221935 117.50000000000001,463.01270189221935 92.5,419.7114317029974 117.49999999999997,376.4101615137755 167.49999999999997,376.41016151377545" class="hex-difficult"/>
<text x="142.5" y="422.7114317029974" class="coord">0,4</text>
<polygon points="267.5,463.0127018922193 242.5,506.31397208144125 192.5,506.31397208144125 167.5,463.0127018922193 192.49999999999997,419.7114317029974 242.49999999999997,419.71143170299734" class="hex-normal"/>
<text x="217.5" y="466.0127018922193" class="coord">1,4</text>
<polygon points="342.5,506.3139720814412 317.5,549.6152422706631 267.5,549.6152422706631 242.5,506.3139720814412 267.5,463.0127018922193 317.49999999999994,463.01270189221924" class="hex-normal"/>
<text x="292.5" y="509.3139720814412" class="coord">2,4</text>
<polygon points="192.5,506.3139720814412 167.5,549.6152422706631 117.50000000000001,549.6152422706631 92.5,506.3139720814412 117.49999999999997,463.0127018922193 167.49999999999997,463.01270189221924" class="hex-normal"/>
<text x="142.5" y="509.3139720814412" class="coord">0,5</text>
<polygon points="267.5,549.6152422706632 242.5,592.9165124598851 192.5,592.9165124598851 167.5,549.6152422706632 192.49999999999997,506.3139720814413 242.49999999999997,506.31397208144125" class="hex-normal"/>
<text x="217.5" y="552.6152422706632" class="coord">1,5</text>
<polygon points="342.5,592.916512459885 317.5,636.2177826491069 267.5,636.2177826491069 242.5,592.916512459885 267.5,549.6152422706631 317.49999999999994,549.615242270663" class="hex-normal"/>
<text x="292.5" y="595.916512459885" class="coord">2,5</text>
<polygon points="192.5,592.9165124598851 167.5,636.217782649107 117.50000000000001,636.217782649107 92.5,592.9165124598851 117.49999999999997,549.6152422706632 167.49999999999997,549.6152422706632" class="hex-normal"/>
<text x="142.5" y="595.9165124598851" class="coord">0,6</text>
<polygon points="267.5,636.2177826491071 242.5,679.519052838329 192.5,679.519052838329 167.5,636.2177826491071 192.49999999999997,592.9165124598852 242.49999999999997,592.9165124598851" class="hex-normal"/>
<text x="217.5" y="639.2177826491071" class="coord">1,6</text>
<polygon points="117.5,549.6152422706632 92.5,592.9165124598851 42.500000000000014,592.9165124598851 17.5,549.6152422706632 42.49999999999998,506.3139720814413 92.49999999999997,506.31397208144125" class="hex-difficult"/>
<text x="67.5" y="552.6152422706632" class="coord">-1,6</text>
<polygon points="417.5,463.0127018922193 392.5,506.31397208144125 342.5,506.31397208144125 317.5,463.0127018922193 342.5,419.7114317029974 392.49999999999994,419.71143170299734" class="hex-normal"/>
<text x="367.5" y="466.0127018922193" class="coord">3,3</text>
<polygon points="192.5,679.5190528383289 167.5,722.8203230275508 117.50000000000001,722.8203230275508 92.5,679.5190528383289 117.49999999999997,636.217782649107 167.49999999999997,636.217782649107" class="hex-normal"/>
<text x="142.5" y="682.5190528383289" class="coord">0,7</text>
<polygon points="267.5,722.8203230275509 242.5,766.1215932167728 192.5,766.1215932167728 167.5,722.8203230275509 192.49999999999997,679.519052838329 242.49999999999997,679.5190528383289" class="hex-normal"/>
<text x="217.5" y="725.8203230275509" class="coord">1,7</text>
<polygon points="417.5,549.6152422706632 392.5,592.9165124598851 342.5,592.9165124598851 317.5,549.6152422706632 342.5,506.3139720814413 392.49999999999994,506.31397208144125" class="hex-difficult"/>
<text x="367.5" y="552.6152422706632" class="coord">3,4</text>
</g>
<g id="starting-positions">
<circle cx="142.5" cy="73.30127018922192" r="8" fill="#4444FF" opacity="0.8"/>
<text x="142.5" y="93.30127018922192" class="label">P1</text>
<circle cx="217.5" cy="116.60254037844385" r="8" fill="#4444FF" opacity="0.8"/>
<text x="217.5" y="136.60254037844385" class="label">P2</text>
<circle cx="292.5" cy="159.9038105676658" r="8" fill="#4444FF" opacity="0.8"/>
<text x="292.5" y="179.9038105676658" class="label">P3</text>
<circle cx="67.5" cy="29.999999999999993" r="8" fill="#4444FF" opacity="0.8"/>
<text x="67.5" y="49.99999999999999" class="label">P4</text>
</g>
<g id="monsters">
<circle cx="217.5" cy="376.4101615137754" r="6" fill="#FF4444" opacity="0.7"/>
<circle cx="292.5" cy="506.3139720814412" r="6" fill="#FF4444" opacity="0.7"/>
<circle cx="217.5" cy="636.2177826491071" r="6" fill="#FF4444" opacity="0.7"/>
</g>
<g id="objectives">
<rect x="211.5" y="716.8203230275509" width="12" height="12" fill="none" stroke="#FFD700" stroke-width="2"/>
</g>
<g id="treasures">
<circle cx="217.5" cy="463.0127018922193" r="5" fill="#FFD700" opacity="0.8"/>
<circle cx="217.5" cy="636.2177826491071" r="5" fill="#FFD700" opacity="0.8"/>
</g>
<g id="legend">
<rect x="10" y="10" width="200" height="120" fill="white" stroke="#999" stroke-width="1" opacity="0.9"/>
<text x="20" y="30" class="label" style="text-anchor: start; font-weight: bold;">Colony Ship Breach</text>
<text x="20" y="45" class="label" style="text-anchor: start; font-size: 9px;">Difficulty: 1</text>
<rect x="15" y="52" width="12" height="12" fill="#90EE90" stroke="#00AA00"/>
<text x="35" y="62" class="label" style="text-anchor: start; font-size: 9px;">Normal</text>
<rect x="15" y="72" width="12" height="12" fill="#FFA500" stroke="#00AA00"/>
<text x="35" y="82" class="label" style="text-anchor: start; font-size: 9px;">Difficult</text>
<rect x="15" y="92" width="12" height="12" fill="#8B0000" stroke="#FF0000"/>
<text x="35" y="102" class="label" style="text-anchor: start; font-size: 9px;">Obstacle</text>
</g>
</svg>