<svg width="510.0" height="839.4228634059947" xmlns="http://www.w3.org/2000/svg">
<defs>
<style>
.hex-normal { fill: #90EE90; stroke: #00AA00; stroke-width: 1; }
.hex-difficult { fill: #FFA500; stroke: #00AA00; stroke-width: 1; }
.hex-obstacle { fill: #8B0000; stroke: #FF0000; stroke-width: 1.5; }
.hex-empty { fill: none; stroke: #00AA00; stroke-width: 0.5; opacity: 0.2; }
.grid-line { stroke: #00AA00; stroke-width: 1; opacity: 0.3; }
.monster { fill: #FF4444; opacity: 0.7; }
.player { fill: #4444FF; opacity: 0.8; }
.objective { fill: #FFD700; opacity: 0.9; }
.label { font-size: 10px; font-family: Arial; fill: #333; text-anchor: middle; }
.coord { font-size: 8px; font-family: Arial; fill: #666; text-anchor: middle; }
</style>
</defs>
<rect width="510.0" height="839.4228634059947" fill="#F5F5F5"/>
<g id="map">
<polygon points="117.5,-13.301270189221938 92.5,29.999999999999993 42.500000000000014,30.0 17.5,-13.301270189221933 42.49999999999998,-56.602540378443855 92.49999999999997,-56.60254037844389" class="hex-normal"/>
<text x="67.5" y="-10.301270189221938" class="coord">-2,0</text>
<polygon points="192.5,29.999999999999993 167.5,73.30127018922192 117.50000000000001,73.30127018922192 92.5,30.0 117.49999999999997,-13.301270189221924 167.49999999999997,-13.30127018922196" class="hex-normal"/>
<text x="142.5" y="32.99999999999999" class="coord">-1,0</text>
<polygon points="267.5,73.30127018922192 242.5,116.60254037844385 192.5,116.60254037844386 167.5,73.30127018922192 192.49999999999997,30.000000000000007 242.49999999999997,29.99999999999997" class="hex-normal"/>
<text x="217.5" y="76.30127018922192" class="coord">0,0</text>
<polygon points="342.5,116.60254037844385 317.5,159.90381056766577 267.5,159.9038105676658 242.5,116.60254037844385 267.5,73.30127018922192 317.49999999999994,73.3012701892219" class="hex-normal"/>
<text x="292.5" y="119.60254037844385" class="coord">1,0</text>
<polygon points="417.5,159.9038105676658 392.5,203.20508075688772 342.5,203.20508075688775 317.5,159.9038105676658 342.5,116.60254037844388 392.49999999999994,116.60254037844385" class="hex-normal"/>
<text x="367.5" y="162.9038105676658" class="coord">2,0</text>
<polygon points="117.5,73.30127018922192 92.5,116.60254037844385 42.500000000000014,116.60254037844386 17.5,73.30127018922192 42.49999999999998,30.000000000000007 92.49999999999997,29.99999999999997" class="hex-difficult"/>
<text x="67.5" y="76.30127018922192" class="coord">-2,1</text>
<polygon points="192.5,116.60254037844385 167.5,159.90381056766577 117.50000000000001,159.9038105676658 92.5,116.60254037844385 117.49999999999997,73.30127018922192 167.49999999999997,73.3012701892219" class="hex-normal"/>
<text x="142.5" y="119.60254037844385" class="coord">-1,1</text>
<polygon points="267.5,159.9038105676658 242.5,203.20508075688772 192.5,203.20508075688775 167.5,159.9038105676658 192.49999999999997,116.60254037844388 242.49999999999997,116.60254037844385" class="hex-normal"/>
<text x="217.5" y="162.9038105676658" class="coord">0,1</text>
<polygon points="342.5,203.20508075688772 317.5,246.50635094610965 267.5,246.50635094610965 242.5,203.20508075688772 267.5,159.9038105676658 317.49999999999994,159.90381056766577" class="hex-normal"/>
<text x="292.5" y="206.20508075688772" class="coord">1,1</text>
<polygon points="417.5,246.50635094610965 392.5,289.8076211353316 342.5,289.8076211353316 317.5,246.50635094610965 342.5,203.20508075688772 392.49999999999994,203.2050807568877" class="hex-difficult"/>
<text x="367.5" y="249.50635094610965" class="coord">2,1</text>
<polygon points="117.5,159.9038105676658 92.5,203.20508075688772 42.500000000000014,203.20508075688775 17.5,159.9038105676658 42.49999999999998,116.60254037844388 92.49999999999997,116.60254037844385" class="hex-normal"/>
<text x="67.5" y="162.9038105676658" class="coord">-2,2</text>
<polygon points="192.5,203.20508075688772 167.5,246.50635094610965 117.50000000000001,246.50635094610965 92.5,203.20508075688772 117.49999999999997,159.9038105676658 167.49999999999997,159.90381056766577" class="hex-normal"/>
<text x="142.5" y="206.20508075688772" class="coord">-1,2</text>
<polygon points="267.5,246.50635094610965 242.5,289.8076211353316 192.5,289.8076211353316 167.5,246.50635094610965 192.49999999999997,203.20508075688772 242.49999999999997,203.2050807568877" class="hex-normal"/>
<text x="217.5" y="249.50635094610965" class="coord">0,2</text>
<polygon points="342.5,289.8076211353316 317.5,333.10889132455355 267.5,333.10889132455355 242.5,289.8076211353316 267.5,246.50635094610968 317.49999999999994,246.50635094610965" class="hex-normal"/>
<text x="292.5" y="292.8076211353316" class="coord">1,2</text>
<polygon points="417.5,333.1088913245535 392.5,376.41016151377545 342.5,376.41016151377545 317.5,333.1088913245535 342.5,289.8076211353316 392.49999999999994,289.80762113533154" class="hex-normal"/>
<text x="367.5" y="336.1088913245535" class="coord">2,2</text>
<polygon points="117.5,246.50635094610968 92.5,289.8076211353316 42.500000000000014,289.8076211353316 17.5,246.50635094610968 42.49999999999998,203.20508075688775 92.49999999999997,203.20508075688772" class="hex-difficult"/>
<text x="67.5" y="249.50635094610968" class="coord">-2,3</text>
<polygon points="192.5,289.8076211353316 167.5,333.10889132455355 117.50000000000001,333.10889132455355 92.5,289.8076211353316 117.49999999999997,246.50635094610968 167.49999999999997,246.50635094610965" class="hex-normal"/>
<text x="142.5" y="292.8076211353316" class="coord">-1,3</text>
<polygon points="267.5,333.1088913245535 242.5,376.41016151377545 192.5,376.41016151377545 167.5,333.1088913245535 192.49999999999997,289.8076211353316 242.49999999999997,289.80762113533154" class="hex-difficult"/>
<text x="217.5" y="336.1088913245535" class="coord">0,3</text>
<polygon points="342.5,376.4101615137754 317.5,419.71143170299734 267.5,419.71143170299734 242.5,376.4101615137754 267.5,333.1088913245535 317.49999999999994,333.10889132455344" class="hex-normal"/>
<text x="292.5" y="379.4101615137754" class="coord">1,3</text>
<polygon points="417.5,419.7114317029974 392.5,463.01270189221935 342.5,463.01270189221935 317.5,419.7114317029974 342.5,376.4101615137755 392.49999999999994,376.41016151377545" class="hex-difficult"/>
<text x="367.5" y="422.7114317029974" class="coord">2,3</text>
<polygon points="117.5,333.1088913245535 92.5,376.41016151377545 42.500000000000014,376.41016151377545 17.5,333.1088913245535 42.49999999999998,289.8076211353316 92.49999999999997,289.80762113533154" class="hex-normal"/>
<text x="67.5" y="336.1088913245535" class="coord">-2,4</text>
<polygon points="192.5,376.4101615137754 167.5,419.71143170299734 117.50000000000001,419.71143170299734 92.5,376.4101615137754 117.49999999999997,333.1088913245535 167.49999999999997,333.10889132455344" class="hex-normal"/>
<text x="142.5" y="379.4101615137754" class="coord">-1,4</text>
<polygon points="267.5,419.7114317029974 242.5,463.01270189221935 192.5,463.01270189221935 167.5,419.7114317029974 192.49999999999997,376.4101615137755 242.49999999999997,376.41016151377545" class="hex-normal"/>
<text x="217.5" y="422.7114317029974" class="coord">0,4</text>
<polygon points="342.5,463.0127018922193 317.5,506.31397208144125 267.5,506.31397208144125 242.5,463.0127018922193 267.5,419.7114317029974 317.49999999999994,419.71143170299734" class="hex-normal"/>
<text x="292.5" y="466.0127018922193" class="coord">1,4</text>
<polygon points="417.5,506.3139720814412 392.5,549.6152422706631 342.5,549.6152422706631 317.5,506.3139720814412 342.5,463.0127018922193 392.49999999999994,463.01270189221924" class="hex-normal"/>
<text x="367.5" y="509.3139720814412" class="coord">2,4</text>
<polygon points="192.5,463.0127018922193 167.5,506.31397208144125 117.50000000000001,506.31397208144125 92.5,463.0127018922193 117.49999999999997,419.7114317029974 167.49999999999997,419.71143170299734" class="hex-normal"/>
<text x="142.5" y="466.0127018922193" class="coord">-1,5</text>
<polygon points="267.5,506.3139720814412 242.5,549.6152422706631 192.5,549.6152422706631 167.5,506.3139720814412 192.49999999999997,463.0127018922193 242.49999999999997,463.01270189221924" class="hex-normal"/>
<text x="217.5" y="509.3139720814412" class="coord">0,5</text>
<polygon points="342.5,549.6152422706632 317.5,592.9165124598851 267.5,592.9165124598851 242.5,549.6152422706632 267.5,506.3139720814413 317.49999999999994,506.31397208144125" class="hex-normal"/>
<text x="292.5" y="552.6152422706632" class="coord">1,5</text>
<polygon points="192.5,549.6152422706632 167.5,592.9165124598851 117.50000000000001,592.9165124598851 92.5,549.6152422706632 117.49999999999997,506.3139720814413 167.49999999999997,506.31397208144125" class="hex-normal"/>
<text x="142.5" y="552.6152422706632" class="coord">-1,6</text>
<polygon points="267.5,592.9165124598851 242.5,636.217782649107 192.5,636.217782649107 167.5,592.9165124598851 192.49999999999997,549.6152422706632 242.49999999999997,549.6152422706632" class="hex-difficult"/>
<text x="217.5" y="595.9165124598851" class="coord">0,6</text>
<polygon points="342.5,636.2177826491071 317.5,679.519052838329 267.5,679.519052838329 242.5,636.2177826491071 267.5,592.9165124598852 317.49999999999994,592.9165124598851" class="hex-normal"/>
<text x="292.5" y="639.2177826491071" class="coord">1,6</text>
<polygon points="192.5,636.217782649107 167.5,679.5190528383289 117.50000000000001,679.5190528383289 92.5,636.217782649107 117.49999999999997,592.9165124598851 167.49999999999997,592.9165124598851" class="hex-normal"/>
<text x="142.5" y="639.217782649107" class="coord">-1,7</text>
<polygon points="267.5,679.5190528383289 242.5,722.8203230275508 192.5,722.8203230275508 167.5,679.5190528383289 192.49999999999997,636.217782649107 242.49999999999997,636.217782649107" class="hex-normal"/>
<text x="217.5" y="682.5190528383289" class="coord">0,7</text>
<polygon points="342.5,722.8203230275509 317.5,766.1215932167728 267.5,766.1215932167728 242.5,722.8203230275509 267.5,679.519052838329 317.49999999999994,679.5190528383289" class="hex-normal"/>
<text x="292.5" y="725.8203230275509" class="coord">1,7</text>
</g>
<g id="starting-positions">
<circle cx="67.5" cy="-13.301270189221938" r="8" class="player"/>
<text x="67.5" y="6.698729810778062" class="label">P1</text>
<circle cx="142.5" cy="29.999999999999993" r="8" class="player"/>
<text x="142.5" y="49.99999999999999" class="label">P2</text>
<circle cx="292.5" cy="116.60254037844385" r="8" class="player"/>
<text x="292.5" y="136.60254037844385" class="label">P3</text>
<circle cx="367.5" cy="159.9038105676658" r="8" class="player"/>
<text x="367.5" y="179.9038105676658" class="label">P4</text>
</g>
<g id="monsters">
<circle cx="217.5" cy="419.7114317029974" r="8" class="monster"/>
</g>
<g id="objectives">
</g>
<g id="treasures">
<star points="217.5,412.7114317029974 220.5,417.7114317029974 224.5,417.7114317029974 221.5,420.7114317029974 222.5,425.7114317029974 217.5,422.7114317029974 212.5,425.7114317029974 213.5,420.7114317029974 210.5,417.7114317029974 214.5,417.7114317029974" fill="#FFD700"/>
<circle cx="217.5" cy="419.7114317029974" r="5" fill="#FFD700" opacity="0.8"/>
<star points="217.5,585.9165124598851 220.5,590.9165124598851 224.5,590.9165124598851 221.5,593.9165124598851 222.5,598.9165124598851 217.5,595.9165124598851 212.5,598.9165124598851 213.5,593.9165124598851 210.5,590.9165124598851 214.5,590.9165124598851" fill="#FFD700"/>
<circle cx="217.5" cy="592.9165124598851" r="5" fill="#FFD700" opacity="0.8"/>
</g>
<g id="legend">
<rect x="10" y="10" width="200" height="120" fill="white" stroke="#999" stroke-width="1" opacity="0.9"/>
<text x="20" y="30" class="label" style="text-anchor: start; font-weight: bold;">The Arcane Core</text>
<text x="20" y="45" class="label" style="text-anchor: start; font-size: 9px;">Difficulty: 7</text>
<rect x="15" y="52" width="12" height="12" class="hex-normal"/>
<text x="35" y="62" class="label" style="text-anchor: start; font-size: 9px;">Normal</text>
<rect x="15" y="72" width="12" height="12" class="hex-difficult"/>
<text x="35" y="82" class="label" style="text-anchor: start; font-size: 9px;">Difficult</text>
<rect x="15" y="92" width="12" height="12" class="hex-obstacle"/>
<text x="35" y="102" class="label" style="text-anchor: start; font-size: 9px;">Obstacle</text>
</g>
</svg>