<svg xmlns="http://www.w3.org/2000/svg" viewBox="0 0 100 100">
  <!-- Background circle -->
  <circle cx="50" cy="50" r="48" fill="#CC3333" stroke="#FFF" stroke-width="3"/>

  <!-- Horned helmet -->
  <path d="M 30 35 Q 30 25 35 20 L 35 15 L 30 20 Q 25 25 25 35 Z" fill="#8B4513" stroke="#000" stroke-width="1.5"/>
  <path d="M 70 35 Q 70 25 65 20 L 65 15 L 70 20 Q 75 25 75 35 Z" fill="#8B4513" stroke="#000" stroke-width="1.5"/>
  <rect x="25" y="30" width="50" height="20" rx="3" fill="#8B4513" stroke="#000" stroke-width="1.5"/>

  <!-- Face opening -->
  <rect x="35" y="35" width="30" height="12" fill="#FFE4C4" stroke="#000" stroke-width="1"/>

  <!-- Eyes -->
  <circle cx="42" cy="40" r="2" fill="#000"/>
  <circle cx="58" cy="40" r="2" fill="#000"/>

  <!-- Battle axe -->
  <line x1="50" y1="55" x2="50" y2="85" stroke="#8B4513" stroke-width="4" stroke-linecap="round"/>
  <path d="M 40 55 L 50 50 L 60 55 L 55 65 L 45 65 Z" fill="#C0C0C0" stroke="#000" stroke-width="1.5"/>
  <path d="M 42 56 L 48 52 L 52 52 L 58 56" fill="none" stroke="#FFF" stroke-width="1" opacity="0.5"/>
</svg>
