<svg xmlns="http://www.w3.org/2000/svg" viewBox="0 0 100 100">
  <!-- Background circle -->
  <circle cx="50" cy="50" r="48" fill="#3399CC" stroke="#FFF" stroke-width="3"/>

  <!-- Goggles -->
  <ellipse cx="40" cy="40" rx="12" ry="10" fill="#FFD700" stroke="#000" stroke-width="2"/>
  <ellipse cx="60" cy="40" rx="12" ry="10" fill="#FFD700" stroke="#000" stroke-width="2"/>
  <line x1="52" y1="40" x2="48" y2="40" stroke="#000" stroke-width="2"/>
  <ellipse cx="40" cy="40" rx="8" ry="7" fill="#87CEEB" stroke="#000" stroke-width="1"/>
  <ellipse cx="60" cy="40" rx="8" ry="7" fill="#87CEEB" stroke="#000" stroke-width="1"/>

  <!-- Mustache -->
  <path d="M 35 50 Q 40 48 45 50 Q 50 48 50 48 Q 50 48 55 50 Q 60 48 65 50" fill="none" stroke="#8B4513" stroke-width="2" stroke-linecap="round"/>

  <!-- Wrench -->
  <g transform="translate(55, 65) rotate(25)">
    <rect x="-2" y="0" width="4" height="20" fill="#999" stroke="#000" stroke-width="1"/>
    <path d="M -5 0 L -5 -5 L 5 -5 L 5 0 Z" fill="#999" stroke="#000" stroke-width="1"/>
    <circle cx="0" cy="-2" r="2" fill="#666"/>
  </g>

  <!-- Gear -->
  <g transform="translate(35, 70)">
    <circle cx="0" cy="0" r="8" fill="#FFD700" stroke="#000" stroke-width="1.5"/>
    <circle cx="0" cy="0" r="3" fill="#666"/>
    <path d="M -1 -8 L 1 -8 L 1 -10 L -1 -10 Z M -1 8 L 1 8 L 1 10 L -1 10 Z M -8 -1 L -8 1 L -10 1 L -10 -1 Z M 8 -1 L 8 1 L 10 1 L 10 -1 Z" fill="#FFD700" stroke="#000" stroke-width="0.5"/>
  </g>
</svg>
