<svg width="510.0" height="752.8203230275509" xmlns="http://www.w3.org/2000/svg">
<defs>
<style>
.hex-normal { fill: #90EE90; stroke: #00AA00; stroke-width: 1; }
.hex-difficult { fill: #FFA500; stroke: #00AA00; stroke-width: 1; }
.hex-obstacle { fill: #8B0000; stroke: #FF0000; stroke-width: 1.5; }
.label { font-size: 10px; font-family: Arial; fill: #333; text-anchor: middle; }
.coord { font-size: 8px; font-family: Arial; fill: #666; text-anchor: middle; }
</style>
</defs>
<rect width="510.0" height="752.8203230275509" fill="white"/>
<g id="map">
<polygon points="192.5,29.999999999999993 167.5,73.30127018922192 117.50000000000001,73.30127018922192 92.5,30.0 117.49999999999997,-13.301270189221924 167.49999999999997,-13.30127018922196" class="hex-normal"/>
<polygon points="267.5,73.30127018922192 242.5,116.60254037844385 192.5,116.60254037844386 167.5,73.30127018922192 192.49999999999997,30.000000000000007 242.49999999999997,29.99999999999997" class="hex-difficult"/>
<polygon points="342.5,116.60254037844385 317.5,159.90381056766577 267.5,159.9038105676658 242.5,116.60254037844385 267.5,73.30127018922192 317.49999999999994,73.3012701892219" class="hex-normal"/>
<polygon points="117.5,-13.301270189221938 92.5,29.999999999999993 42.500000000000014,30.0 17.5,-13.301270189221933 42.49999999999998,-56.602540378443855 92.49999999999997,-56.60254037844389" class="hex-normal"/>
<polygon points="417.5,159.9038105676658 392.5,203.20508075688772 342.5,203.20508075688775 317.5,159.9038105676658 342.5,116.60254037844388 392.49999999999994,116.60254037844385" class="hex-normal"/>
<polygon points="192.5,116.60254037844385 167.5,159.90381056766577 117.50000000000001,159.9038105676658 92.5,116.60254037844385 117.49999999999997,73.30127018922192 167.49999999999997,73.3012701892219" class="hex-normal"/>
<polygon points="267.5,159.9038105676658 242.5,203.20508075688772 192.5,203.20508075688775 167.5,159.9038105676658 192.49999999999997,116.60254037844388 242.49999999999997,116.60254037844385" class="hex-normal"/>
<polygon points="342.5,203.20508075688772 317.5,246.50635094610965 267.5,246.50635094610965 242.5,203.20508075688772 267.5,159.9038105676658 317.49999999999994,159.90381056766577" class="hex-normal"/>
<polygon points="192.5,203.20508075688772 167.5,246.50635094610965 117.50000000000001,246.50635094610965 92.5,203.20508075688772 117.49999999999997,159.9038105676658 167.49999999999997,159.90381056766577" class="hex-difficult"/>
<polygon points="267.5,246.50635094610965 242.5,289.8076211353316 192.5,289.8076211353316 167.5,246.50635094610965 192.49999999999997,203.20508075688772 242.49999999999997,203.2050807568877" class="hex-normal"/>
<polygon points="342.5,289.8076211353316 317.5,333.10889132455355 267.5,333.10889132455355 242.5,289.8076211353316 267.5,246.50635094610968 317.49999999999994,246.50635094610965" class="hex-normal"/>
<polygon points="117.5,73.30127018922192 92.5,116.60254037844385 42.500000000000014,116.60254037844386 17.5,73.30127018922192 42.49999999999998,30.000000000000007 92.49999999999997,29.99999999999997" class="hex-normal"/>
<polygon points="417.5,246.50635094610965 392.5,289.8076211353316 342.5,289.8076211353316 317.5,246.50635094610965 342.5,203.20508075688772 392.49999999999994,203.2050807568877" class="hex-difficult"/>
<polygon points="192.5,289.8076211353316 167.5,333.10889132455355 117.50000000000001,333.10889132455355 92.5,289.8076211353316 117.49999999999997,246.50635094610968 167.49999999999997,246.50635094610965" class="hex-normal"/>
<polygon points="267.5,333.1088913245535 242.5,376.41016151377545 192.5,376.41016151377545 167.5,333.1088913245535 192.49999999999997,289.8076211353316 242.49999999999997,289.80762113533154" class="hex-normal"/>
<polygon points="342.5,376.4101615137754 317.5,419.71143170299734 267.5,419.71143170299734 242.5,376.4101615137754 267.5,333.1088913245535 317.49999999999994,333.10889132455344" class="hex-difficult"/>
<polygon points="267.5,419.7114317029974 242.5,463.01270189221935 192.5,463.01270189221935 167.5,419.7114317029974 192.49999999999997,376.4101615137755 242.49999999999997,376.41016151377545" class="hex-normal"/>
<polygon points="342.5,463.0127018922193 317.5,506.31397208144125 267.5,506.31397208144125 242.5,463.0127018922193 267.5,419.7114317029974 317.49999999999994,419.71143170299734" class="hex-normal"/>
<polygon points="192.5,376.4101615137754 167.5,419.71143170299734 117.50000000000001,419.71143170299734 92.5,376.4101615137754 117.49999999999997,333.1088913245535 167.49999999999997,333.10889132455344" class="hex-normal"/>
<polygon points="417.5,333.1088913245535 392.5,376.41016151377545 342.5,376.41016151377545 317.5,333.1088913245535 342.5,289.8076211353316 392.49999999999994,289.80762113533154" class="hex-normal"/>
<polygon points="267.5,506.3139720814412 242.5,549.6152422706631 192.5,549.6152422706631 167.5,506.3139720814412 192.49999999999997,463.0127018922193 242.49999999999997,463.01270189221924" class="hex-difficult"/>
<polygon points="342.5,549.6152422706632 317.5,592.9165124598851 267.5,592.9165124598851 242.5,549.6152422706632 267.5,506.3139720814413 317.49999999999994,506.31397208144125" class="hex-normal"/>
<polygon points="192.5,463.0127018922193 167.5,506.31397208144125 117.50000000000001,506.31397208144125 92.5,463.0127018922193 117.49999999999997,419.7114317029974 167.49999999999997,419.71143170299734" class="hex-normal"/>
<polygon points="417.5,419.7114317029974 392.5,463.01270189221935 342.5,463.01270189221935 317.5,419.7114317029974 342.5,376.4101615137755 392.49999999999994,376.41016151377545" class="hex-normal"/>
<polygon points="267.5,592.9165124598851 242.5,636.217782649107 192.5,636.217782649107 167.5,592.9165124598851 192.49999999999997,549.6152422706632 242.49999999999997,549.6152422706632" class="hex-normal"/>
<polygon points="342.5,636.2177826491071 317.5,679.519052838329 267.5,679.519052838329 242.5,636.2177826491071 267.5,592.9165124598852 317.49999999999994,592.9165124598851" class="hex-normal"/>
<polygon points="417.5,506.3139720814412 392.5,549.6152422706631 342.5,549.6152422706631 317.5,506.3139720814412 342.5,463.0127018922193 392.49999999999994,463.01270189221924" class="hex-normal"/>
</g>
</svg>